<?xml version="1.0" encoding="UTF-8" standalone="no"?>
<!-- Created with Inkscape (http://www.inkscape.org/) -->

<svg
   width="1940.6621"
   height="464.50391"
   viewBox="0 0 1940.6621 464.50391"
   version="1.1"
   id="svg1"
   xml:space="preserve"
   xmlns="http://www.w3.org/2000/svg"
   xmlns:svg="http://www.w3.org/2000/svg"><defs
     id="defs1"><filter
       style="color-interpolation-filters:sRGB"
       id="filter27-4"
       x="-0.096119614"
       y="-0.096119614"
       width="1.1922392"
       height="1.1922392"><feGaussianBlur
         stdDeviation="5.2521158"
         id="feGaussianBlur27-8" /></filter><filter
       style="color-interpolation-filters:sRGB"
       id="filter26-8"
       x="-0.13498002"
       y="-0.090008856"
       width="1.26996"
       height="1.1800177"><feGaussianBlur
         stdDeviation="14.76299"
         id="feGaussianBlur26-2" /></filter><filter
       style="color-interpolation-filters:sRGB"
       id="filter20-4"
       x="-0.24198221"
       y="-0.24198221"
       width="1.4839644"
       height="1.4839644"><feGaussianBlur
         stdDeviation="13.22226"
         id="feGaussianBlur20-5" /></filter></defs><g
     id="layer1"
     transform="translate(-6113.8804,-20128.869)"><g
       id="g66"
       transform="translate(-222.5511,190.75809)"><path
         id="path52"
         style="font-weight:900;font-size:266.667px;font-family:Nexa;-inkscape-font-specification:'Nexa Heavy';letter-spacing:0px;fill:#fffffd;stroke-width:22.5335;paint-order:markers stroke fill"
         d="m 7764.91,20087.387 c -0.026,0.01 -0.052,0.03 -0.078,0.04 -15.136,8.012 -26.6962,19.221 -35.2597,34.204 -8.3255,14.713 -12.5626,31.64 -12.5626,51.401 0,19.783 4.1556,36.744 12.3027,51.462 8.3572,14.742 19.822,25.954 34.9805,34.165 15.314,8.19 33.1289,12.386 53.9629,12.386 25.9958,0 47.7912,-7.649 66.7501,-23.304 l -15.629,-17.418 c -5.8048,4.454 -12.1984,8.132 -19.1778,10.864 -10.092,3.949 -20.7217,5.938 -31.6503,5.938 -13.6893,0 -26.3702,-2.989 -37.4688,-9.105 -0.068,-0.04 -0.1359,-0.08 -0.2031,-0.113 -10.8524,-6.331 -19.5407,-15.389 -25.5918,-26.596 -0.023,-0.04 -0.046,-0.09 -0.068,-0.13 -5.867,-11.282 -8.705,-24.158 -8.705,-38.149 0,-13.992 2.8382,-26.869 8.705,-38.15 0.022,-0.04 0.045,-0.09 0.068,-0.131 6.0606,-11.222 14.7981,-20.221 25.7051,-26.36 11.1037,-6.336 23.8329,-9.457 37.5586,-9.457 17.3808,0 33.3003,5.324 46.7109,15.448 l 16.4786,-16.477 c -18.4744,-15.416 -39.4865,-22.885 -61.9304,-22.885 -22.4439,0 -39.7468,4.168 -54.8979,12.367 z m -329.2588,-7.677 v 186.627 h 74.8105 c 19.8884,0 36.7464,-3.92 51.0645,-11.522 0.014,0 0.029,-0.01 0.043,-0.02 14.5583,-7.634 25.3723,-18.127 33.125,-32.047 0.01,-0.01 0.015,-0.02 0.022,-0.03 7.9422,-14.119 11.998,-30.481 11.998,-49.686 0,-19.204 -4.0577,-35.446 -11.9746,-49.345 -0.023,-0.04 -0.046,-0.08 -0.068,-0.125 -7.7625,-14.113 -18.57,-24.679 -33.1015,-32.299 -0.014,0 -0.029,-0.01 -0.043,-0.02 -14.3181,-7.601 -31.1741,-11.524 -51.0625,-11.524 z m 211.658,0 v 186.627 h 29.209 v -186.627 z m 344.7195,0 -83.7148,186.627 h 30.4101 l 12.8536,-31.14 c 1.4646,-3.548 4.9247,-5.864 8.7636,-5.864 h 101.3263 c 3.8389,0 7.2988,2.316 8.7636,5.864 l 12.8496,31.14 h 31.0371 l -83.1836,-186.627 z m 152.4752,0 v 186.627 h 132.5898 v -24.506 h -93.9023 c -5.2354,0 -9.4794,-4.245 -9.4805,-9.48 v -152.641 z m -670.1652,23.042 h 36.123 c 12.7293,0 24.5105,2.919 34.6739,8.898 10.3038,5.753 18.474,14.31 23.9336,24.957 5.7189,10.575 8.4394,22.878 8.4394,36.418 0,20.397 -6.0834,38.035 -18.5156,50.928 -12.3597,12.819 -29.2899,19.348 -48.5313,19.348 h -36.123 c -5.2358,0 -9.48,-4.245 -9.4805,-9.481 v -121.59 c 0,-5.235 4.2459,-9.477 9.4805,-9.478 z m 537.1334,4.109 c 3.8377,0.01 7.2896,2.337 8.7442,5.888 l 33.1914,81.061 c 2.5517,6.238 -2.036,13.072 -8.7755,13.072 h -66.9648 c -6.7638,0 -11.3501,-6.883 -8.75,-13.127 l 33.7734,-81.06 c 0.968,-2.324 2.8202,-4.167 5.1485,-5.124 1.1525,-0.473 2.387,-0.714 3.6328,-0.71 z" /><g
         id="g65"
         transform="translate(-19604.051,6595.6849)"><circle
           style="opacity:0.301887;fill:#000000;fill-opacity:1;stroke-width:10;paint-order:markers stroke fill;filter:url(#filter27-4)"
           id="circle52"
           cx="-2927.6296"
           cy="-8445.3027"
           r="65.569748"
           transform="rotate(180,11555.078,2564.6364)" /><path
           id="path54"
           style="opacity:0.2;fill:#000000;fill-opacity:1;stroke-width:10;paint-order:markers stroke fill;filter:url(#filter26-8)"
           d="m 26169.139,13771.498 c 36.214,0 65.571,-29.357 65.57,-65.571 v -0.744 c -0.161,-14.264 2.859,-33.495 13.012,-43.648 l 8.17,-8.17 c 10.154,-10.154 29.386,-13.173 43.65,-13.012 0.248,0 0.495,0 0.743,0 15.738,0 30.148,-5.589 41.449,-14.832 0.127,-0.103 0.262,-0.195 0.389,-0.299 1.171,-0.973 2.28,-2.011 3.38,-3.062 0.443,-0.419 0.92,-0.793 1.352,-1.225 0.234,-0.234 0.467,-0.47 0.697,-0.707 11.861,-12.224 18.509,-28.597 18.51,-45.656 0,-36.214 -29.357,-65.571 -65.57,-65.57 -0.248,0 -0.497,0 -0.744,0 -14.265,0.161 -33.497,-2.859 -43.651,-13.012 l -8.17,-8.17 c -10.153,-10.154 -13.173,-29.386 -13.012,-43.651 v -0.742 c 0,-36.212 -29.355,-65.57 -65.568,-65.57 -36.214,0 -65.57,29.357 -65.57,65.57 0,36.213 29.356,65.57 65.568,65.571 0.248,0 0.497,0 0.744,0 14.265,-0.162 33.497,2.856 43.651,13.009 l 8.17,8.17 c 9.267,9.267 12.591,26.098 12.978,39.811 -0.114,1.583 -0.174,3.182 -0.174,4.795 v 0.744 c 0.162,14.265 -2.856,33.495 -13.009,43.648 l -8.172,8.17 c -10.154,10.154 -29.384,13.173 -43.649,13.012 -0.247,0 -0.496,0 -0.744,0 -36.214,0 -65.571,29.357 -65.57,65.57 0,17.39 6.91,34.067 19.207,46.364 12.296,12.297 28.973,19.206 46.363,19.207 z" /><path
           id="path63"
           style="fill:#04ff60;fill-opacity:1;stroke-width:10;paint-order:markers stroke fill"
           d="m 26169.139,13771.498 c 36.214,0 65.571,-29.357 65.57,-65.571 v -0.744 c -0.161,-14.264 2.859,-33.495 13.012,-43.648 l 8.17,-8.17 c 10.154,-10.154 29.386,-13.173 43.65,-13.012 0.248,0 0.495,0 0.743,0 15.738,0 30.148,-5.589 41.449,-14.832 0.127,-0.103 0.262,-0.195 0.389,-0.299 1.171,-0.973 2.28,-2.011 3.38,-3.062 0.443,-0.419 0.92,-0.793 1.352,-1.225 0.234,-0.234 0.467,-0.47 0.697,-0.707 11.861,-12.224 18.509,-28.597 18.51,-45.656 0,-36.214 -29.357,-65.571 -65.57,-65.57 -0.248,0 -0.497,0 -0.744,0 -14.265,0.161 -33.497,-2.859 -43.651,-13.012 l -8.17,-8.17 c -10.153,-10.154 -13.173,-29.386 -13.012,-43.651 v -0.742 c 0,-36.212 -29.355,-65.57 -65.568,-65.57 -36.214,0 -65.57,29.357 -65.57,65.57 0,36.213 29.356,65.57 65.568,65.571 0.248,0 0.497,0 0.744,0 14.265,-0.162 33.497,2.856 43.651,13.009 l 8.17,8.17 c 9.267,9.267 12.591,26.098 12.978,39.811 -0.114,1.583 -0.174,3.182 -0.174,4.795 v 0.744 c 0.162,14.265 -2.856,33.495 -13.009,43.648 l -8.172,8.17 c -10.154,10.154 -29.384,13.173 -43.649,13.012 -0.247,0 -0.496,0 -0.744,0 -36.214,0 -65.571,29.357 -65.57,65.57 0,17.39 6.91,34.067 19.207,46.364 12.296,12.297 28.973,19.206 46.363,19.207 z" /><circle
           style="fill:#fffffe;fill-opacity:1;stroke-width:10;paint-order:markers stroke fill"
           id="circle64"
           cx="-26037.783"
           cy="-13574.575"
           r="65.569748"
           transform="scale(-1)" /><circle
           style="opacity:0.5;fill:#fffffe;fill-opacity:1;stroke-width:10;paint-order:markers stroke fill;filter:url(#filter20-4)"
           id="circle65"
           cx="-2927.6296"
           cy="-8445.3027"
           r="65.569748"
           transform="rotate(180,11555.078,2564.6364)" /></g><path
         style="font-weight:900;font-size:266.667px;font-family:Nexa;-inkscape-font-specification:'Nexa Heavy';letter-spacing:0px;fill:#04ff60;stroke-width:20.4594;paint-order:markers stroke fill"
         d="m 7094.0985,20079.709 h 39.2001 v 186.667 h -43.4667 v -116.8 l -54.9334,67.2 h -8.5334 l -55.4667,-67.467 v 117.067 h -43.4667 v -186.667 h 39.2 l 63.7334,79.467 z m 122.1335,149.867 h 102.9334 v 36.8 h -145.3335 v -186.667 h 142.4002 v 36.534 H 7216.232 v 37.866 h 94.6667 v 35.201 h -94.6667 z m 135.2002,-149.867 h 43.7334 v 186.667 h -43.7334 z"
         id="path65"
         aria-label="MEI" /></g></g></svg>
